<svg xmlns="http://www.w3.org/2000/svg" viewBox="0 0 32 32">
  <rect width="32" height="32" rx="6" fill="#003C6E"/>
  <g transform="translate(4, 3) scale(0.17)" fill="#fff">
    <path d="m125.6 65.2c-8.7-11.5-24.4-20.8-45.3-23.8s-41.5 1.1-61.4 10.2c19.7-5.6 34.6-8.8 58.8-5.7 20.4 2.5 36.6 10.3 47.9 19.3z"/>
    <path d="m73.4.6c1.3-.4 2.6-.6 4-.6 8.1 0 14.8 6.9 14.8 15.5s-6.6 15.5-14.7 15.5c-6.4-.1-12.1-4.3-14-10.4 3 3.9 7.6 6.1 12.4 6 8.2 0 14.8-5.9 14.8-13.1s-6.6-13-14.8-13c-.8-.1-1.7 0-2.5.1z"/>
    <path d="m80.7 6.6c-7.9-3.5-17.2.1-20.7 8s.1 17.2 8 20.7c7.7 3.4 16.7.1 20.4-7.4-3.6 3.5-8.6 5.2-13.5 4.5-8.4-1-14.5-7.7-13.6-15s8.4-12.4 16.8-11.3c.8.1 1.7.3 2.6.5z"/>
    <path d="m82.8 16.8c0-.1.1-.3.1-.4.2-1.8-.8-3.6-2.5-4.4h.6c2.8.3 4.8 2.8 4.5 5.6s-2.8 4.8-5.6 4.5c-1.6-.2-3-1.1-3.8-2.4l-.1-.3c-.3-.5-.4-1.1-.4-1.7 0-2 1.6-3.7 3.7-3.7 1.6 0 3.1 1.1 3.5 2.8z"/>
    <path d="m18 69.2 6.3 19.5h.4l8-20.2c1-2.6 1.8-3.9 3.4-4.1v-1.1c-.6 0-1.8.2-3.6.2s-3-.2-3.6-.2v.9c2.8.2 3.4.6 3.4 1.3-.1 1.1-.3 2.1-.7 3.1l-5.7 15.1h-.1l-4.5-15.6c-.3-.9-.5-1.7-.6-2.6 0-.8.9-1.2 2.9-1.2v-.9c-.8 0-2.4.2-4.8.2s-4.1-.2-4.8-.2v.9c1.3 0 2.1.2 2.3.6.5 1 .9 2.1 1.1 3.3 0 .3-.1.6-.2.9l-4.8 14.3h-.1l-5.7-17.1c-.1-.4-.2-.8-.3-1.2 0-.7 1.3-.9 2.8-.9v-.9c-1 0-2.5.2-4.6.2-2.4 0-3.9-.4-4.6-.4v1.2c1.8.1 2.1.3 2.7 1.9l8.4 22.5h.4z"/>
  </g>
</svg>
